<svg xmlns="http://www.w3.org/2000/svg" viewBox="0 0 150 150" width="150" height="150">
<!-- WhatsApp doodle background -->
<rect width="150" height="150" fill="#f0f2f5"/>

<!-- Doodle elements - bigger and more random -->
<g fill="none" stroke="#d1d7db" stroke-width="1.2" opacity="0.6">
  <!-- Smiley faces in random positions -->
  <circle cx="25" cy="30" r="6"/>
  <circle cx="22" cy="27" r="0.8" fill="#d1d7db"/>
  <circle cx="28" cy="27" r="0.8" fill="#d1d7db"/>
  <path d="M20 33 Q25 37 30 33"/>
  
  <circle cx="110" cy="85" r="5"/>
  <circle cx="108" cy="82" r="0.6" fill="#d1d7db"/>
  <circle cx="112" cy="82" r="0.6" fill="#d1d7db"/>
  <path d="M106 88 Q110 91 114 88"/>

  <!-- Phones scattered -->
  <rect x="70" y="20" width="8" height="14" rx="2"/>
  <circle cx="74" cy="36" r="1"/>
  <rect x="15" y="100" width="7" height="12" rx="1.5"/>
  <circle cx="18.5" cy="114" r="0.8"/>

  <!-- Hearts in various sizes -->
  <path d="M95 35 Q92 32 89 35 Q92 38 95 42 Q98 38 101 35 Q98 32 95 35"/>
  <path d="M45 110 Q43 108 41 110 Q43 112 45 115 Q47 112 49 110 Q47 108 45 110"/>

  <!-- Message bubbles -->
  <path d="M120 25 Q132 25 132 32 Q132 39 120 39 L117 42 L120 39 Q110 39 110 32 Q110 25 120 25"/>
  <path d="M35 75 Q45 75 45 80 Q45 85 35 85 L33 87 L35 85 Q28 85 28 80 Q28 75 35 75"/>

  <!-- Cameras -->
  <rect x="80" y="60" width="12" height="8" rx="1.5"/>
  <circle cx="86" cy="64" r="3"/>
  <rect x="92" y="61" width="2" height="2"/>
  <rect x="50" y="130" width="10" height="7" rx="1"/>
  <circle cx="55" cy="133.5" r="2.5"/>

  <!-- Music notes -->
  <circle cx="60" cy="50" r="1.5"/>
  <path d="M61.5 50 L61.5 35 L68 33 L68 48"/>
  <circle cx="130" cy="110" r="1.2"/>
  <path d="M131.2 110 L131.2 98 L136 97 L136 108"/>

  <!-- Stars -->
  <path d="M100 70 L102 76 L108 76 L103 80 L105 86 L100 83 L95 86 L97 80 L92 76 L98 76 Z"/>
  <path d="M20 60 L21.5 64 L26 64 L22.5 67 L24 71 L20 68.5 L16 71 L17.5 67 L14 64 L18.5 64 Z"/>

  <!-- Coffee cups -->
  <path d="M125 50 L125 62 Q125 65 128 65 L138 65 Q141 65 141 62 L141 50"/>
  <path d="M141 55 Q144 55 144 58 Q144 61 141 61"/>

  <!-- Bicycles -->
  <circle cx="30" cy="120" r="4"/>
  <circle cx="45" cy="120" r="4"/>
  <path d="M30 120 L37.5 108 L40 108 L45 120"/>
  <path d="M37.5 108 L37.5 116"/>

  <!-- Gift boxes -->
  <rect x="85" y="100" width="8" height="8"/>
  <path d="M82 104 L96 104 M89 96 Q86 98 89 101 Q92 98 89 96"/>

  <!-- Clocks -->
  <circle cx="105" cy="120" r="4"/>
  <path d="M105 120 L105 116 M105 120 L108 122"/>

  <!-- Lightbulbs -->
  <circle cx="65" cy="90" r="4"/>
  <rect x="63" y="93" width="4" height="6"/>
  <path d="M61 99 L69 99 M62 102 L68 102"/>

  <!-- Thumbs up -->
  <path d="M140 130 Q143 127 146 130 L146 140 Q146 143 143 143 L136 143 Q133 143 133 140 L133 135 Q133 132 136 132 L140 132"/>

  <!-- Additional random elements -->
  <!-- Pizza slice -->
  <path d="M10 10 L20 25 L10 40 Z"/>
  <circle cx="13" cy="22" r="1"/>
  <circle cx="16" cy="30" r="1"/>

  <!-- Umbrella -->
  <path d="M75 130 Q68 130 68 137 Q68 144 75 144 Q82 144 82 137 Q82 130 75 130"/>
  <path d="M75 144 L75 150 Q73 152 75 152"/>

  <!-- Glasses -->
  <circle cx="55" cy="15" r="5"/>
  <circle cx="68" cy="15" r="5"/>
  <path d="M60 15 L63 15"/>
  <path d="M50 12 L50 18"/>
  <path d="M73 12 L73 18"/>
</g>
</svg>